<svg width="24" height="24" viewBox="0 0 24 24" fill="none" xmlns="http://www.w3.org/2000/svg">
<path d="M12.0943 20L14.9938 16.8728L15.0103 16.856C15.0184 16.8472 15.0292 16.8348 15.0425 16.8203C15.0691 16.7913 15.1063 16.7517 15.1519 16.7013C15.2433 16.6004 15.371 16.4579 15.5259 16.2821C15.8341 15.9322 16.257 15.4403 16.716 14.8746C17.5412 13.8574 18.8144 12.2027 19.552 10.6115C20.598 8.35531 19.7499 5.6111 17.658 4.48301C15.5811 3.36299 13.0593 4.25733 11.9997 6.47826C11.0132 4.40593 8.70874 3.44593 6.66304 4.32838C4.49158 5.26519 3.43547 7.92255 4.30396 10.2646C4.99285 12.1221 6.42562 13.9327 7.25212 14.9232C7.73772 15.5051 8.19179 16.008 8.5231 16.3653C8.68993 16.5453 8.82854 16.6916 8.92838 16.7955C8.97836 16.8475 9.01921 16.8891 9.04877 16.9194L9.08461 16.9561L9.10023 16.9729L9.10207 16.9739L9.10299 16.9759L12.0943 20Z" stroke="white" stroke-width="1.5" stroke-miterlimit="10" stroke-linecap="round" stroke-linejoin="round"/>
</svg>
