<svg width="17" height="16" viewBox="0 0 17 16" fill="none" xmlns="http://www.w3.org/2000/svg">
<path d="M8.87534 6.00016C8.34491 6.00016 7.8362 6.21088 7.46113 6.58595C7.08605 6.96102 6.87534 7.46973 6.87534 8.00016C6.87534 8.5306 7.08605 9.0393 7.46113 9.41438C7.8362 9.78945 8.34491 10.0002 8.87534 10.0002C9.40577 10.0002 9.91448 9.78945 10.2896 9.41438C10.6646 9.0393 10.8753 8.5306 10.8753 8.00016C10.8753 7.46973 10.6646 6.96102 10.2896 6.58595C9.91448 6.21088 9.40577 6.00016 8.87534 6.00016ZM8.87534 4.66683C9.7594 4.66683 10.6072 5.01802 11.2324 5.64314C11.8575 6.26826 12.2087 7.11611 12.2087 8.00016C12.2087 8.88422 11.8575 9.73206 11.2324 10.3572C10.6072 10.9823 9.7594 11.3335 8.87534 11.3335C7.99129 11.3335 7.14344 10.9823 6.51832 10.3572C5.8932 9.73206 5.54201 8.88422 5.54201 8.00016C5.54201 7.11611 5.8932 6.26826 6.51832 5.64314C7.14344 5.01802 7.99129 4.66683 8.87534 4.66683ZM13.2087 4.50016C13.2087 4.72118 13.1209 4.93314 12.9646 5.08942C12.8083 5.2457 12.5964 5.3335 12.3753 5.3335C12.1543 5.3335 11.9424 5.2457 11.7861 5.08942C11.6298 4.93314 11.542 4.72118 11.542 4.50016C11.542 4.27915 11.6298 4.06719 11.7861 3.91091C11.9424 3.75463 12.1543 3.66683 12.3753 3.66683C12.5964 3.66683 12.8083 3.75463 12.9646 3.91091C13.1209 4.06719 13.2087 4.27915 13.2087 4.50016ZM8.87534 2.66683C7.22601 2.66683 6.95667 2.6715 6.18934 2.7055C5.66667 2.73016 5.31601 2.80016 4.99067 2.92683C4.71856 3.02708 4.47249 3.18725 4.27067 3.3955C4.06219 3.59724 3.90178 3.84332 3.80134 4.1155C3.67467 4.44216 3.60467 4.79216 3.58067 5.31416C3.54601 6.05016 3.54134 6.3075 3.54134 8.00016C3.54134 9.65016 3.54601 9.91883 3.58001 10.6862C3.60467 11.2082 3.67467 11.5595 3.80067 11.8842C3.91401 12.1742 4.04734 12.3828 4.26867 12.6042C4.49334 12.8282 4.70201 12.9622 4.98867 13.0728C5.31801 13.2002 5.66867 13.2708 6.18867 13.2948C6.92467 13.3295 7.18201 13.3335 8.87467 13.3335C10.5247 13.3335 10.7933 13.3288 11.5607 13.2948C12.082 13.2702 12.4327 13.2002 12.7587 13.0742C13.0308 12.9739 13.2769 12.8137 13.4787 12.6055C13.7033 12.3815 13.8373 12.1728 13.948 11.8855C14.0747 11.5575 14.1453 11.2068 14.1693 10.6855C14.204 9.95016 14.208 9.69216 14.208 8.00016C14.208 6.35083 14.2033 6.0815 14.1693 5.31416C14.1447 4.79283 14.074 4.44083 13.948 4.1155C13.8478 3.84338 13.6876 3.59731 13.4793 3.3955C13.2776 3.18701 13.0315 3.0266 12.7593 2.92616C12.4327 2.7995 12.082 2.7295 11.5607 2.7055C10.8253 2.67083 10.568 2.66683 8.87467 2.66683M8.87467 1.3335C10.686 1.3335 10.912 1.34016 11.6233 1.3735C12.3327 1.40683 12.8167 1.51816 13.2413 1.6835C13.6813 1.85283 14.052 2.08216 14.4227 2.45216C14.7618 2.78532 15.0241 3.18848 15.1913 3.6335C15.356 4.05816 15.468 4.54216 15.5013 5.25216C15.5327 5.96283 15.5413 6.18883 15.5413 8.00016C15.5413 9.8115 15.5347 10.0375 15.5013 10.7482C15.468 11.4588 15.356 11.9415 15.1913 12.3668C15.0241 12.8118 14.7618 13.215 14.4227 13.5482C14.0895 13.8873 13.6864 14.1496 13.2413 14.3168C12.8167 14.4815 12.3327 14.5935 11.6233 14.6268C10.912 14.6582 10.686 14.6668 8.87467 14.6668C7.06334 14.6668 6.83734 14.6602 6.12601 14.6268C5.41667 14.5935 4.93334 14.4815 4.50801 14.3168C4.06299 14.1496 3.65983 13.8873 3.32667 13.5482C2.98755 13.215 2.72522 12.8118 2.55801 12.3668C2.39267 11.9422 2.28134 11.4582 2.24801 10.7482C2.21601 10.0375 2.20801 9.8115 2.20801 8.00016C2.20801 6.18883 2.21467 5.96283 2.24801 5.25216C2.28134 4.5415 2.39267 4.05883 2.55801 3.6335C2.72522 3.18848 2.98755 2.78532 3.32667 2.45216C3.65983 2.11303 4.06299 1.85071 4.50801 1.6835C4.93267 1.51816 5.41601 1.40683 6.12601 1.3735C6.83801 1.34216 7.06401 1.3335 8.87534 1.3335" fill="black"/>
</svg>
