<svg width="17" height="16" viewBox="0 0 17 16" fill="none" xmlns="http://www.w3.org/2000/svg">
<g clip-path="url(#clip0_2050_1537)">
<path d="M8.24408 5.21001L8.74474 2.85268C8.81834 2.50686 9.02627 2.20443 9.32282 2.0119C9.61936 1.81937 9.98024 1.75251 10.3261 1.82601L12.4567 2.27935C12.653 2.06111 12.9159 1.91376 13.2045 1.86013C13.493 1.8065 13.7913 1.8496 14.0529 1.98275C14.3144 2.11589 14.5248 2.33164 14.6513 2.59652C14.7777 2.8614 14.8133 3.16062 14.7524 3.44775C14.6914 3.73489 14.5375 3.9939 14.3143 4.1846C14.0912 4.37531 13.8114 4.48705 13.5182 4.50251C13.2251 4.51796 12.9351 4.43625 12.6931 4.27006C12.4512 4.10387 12.2708 3.86249 12.1801 3.58335L10.0487 3.13001L9.60474 5.22001C10.7947 5.31135 11.9767 5.70668 13.0474 6.35335C13.3656 6.17629 13.7239 6.08384 14.088 6.08484C14.4521 6.08584 14.8099 6.18026 15.1271 6.35906C15.4443 6.53786 15.7103 6.79507 15.8997 7.10607C16.0891 7.41707 16.1955 7.77146 16.2087 8.13535V8.14935C16.2134 8.47536 16.1434 8.79811 16.0039 9.09281C15.8644 9.38751 15.6592 9.64632 15.4041 9.84935L15.3987 9.93135C15.3987 12.5967 12.4321 14.618 8.86608 14.618C5.31074 14.618 2.39408 12.602 2.39608 9.98268L2.38941 9.86201C1.96134 9.53782 1.67161 9.06381 1.57829 8.535C1.48498 8.00619 1.59497 7.46164 1.88622 7.01051C2.17748 6.55938 2.62847 6.23499 3.14882 6.10236C3.66917 5.96974 4.22041 6.03867 4.69208 6.29535C5.76886 5.64654 6.98855 5.27373 8.24408 5.21001ZM14.4347 8.89401C14.5681 8.82798 14.6802 8.72576 14.7583 8.59903C14.8363 8.4723 14.8771 8.32618 14.8761 8.17735C14.8691 8.02481 14.8184 7.8775 14.7299 7.75304C14.6415 7.62859 14.519 7.53225 14.3772 7.47557C14.2355 7.41888 14.0803 7.40425 13.9305 7.43341C13.7806 7.46257 13.6423 7.5343 13.5321 7.64001L13.1421 8.01335L12.6954 7.71001C11.6187 6.97801 10.3941 6.56001 9.20874 6.53401H8.53808C7.28808 6.55268 6.10341 6.93401 5.04674 7.65068L4.60408 7.95068L4.21541 7.58401C4.13143 7.50537 4.03138 7.44589 3.92217 7.4097C3.81295 7.37351 3.69718 7.36146 3.58286 7.3744C3.46854 7.38733 3.35838 7.42494 3.26002 7.48461C3.16165 7.54429 3.07741 7.62461 3.01313 7.72004C2.94885 7.81546 2.90605 7.9237 2.8877 8.03728C2.86935 8.15086 2.87588 8.26707 2.90684 8.37788C2.93781 8.48869 2.99246 8.59145 3.06703 8.67907C3.1416 8.76669 3.23431 8.83707 3.33874 8.88535L3.76074 9.07868L3.72541 9.54201C3.71659 9.67167 3.71726 9.80179 3.72741 9.93135C3.72741 11.738 5.96474 13.2847 8.86608 13.2847C11.7801 13.2847 14.0654 11.7273 14.0674 9.88001C14.0769 9.76755 14.0769 9.65448 14.0674 9.54201L14.0327 9.09401L14.4347 8.89401ZM5.50941 9.00001C5.50941 8.7348 5.61477 8.48044 5.8023 8.29291C5.98984 8.10537 6.24419 8.00001 6.50941 8.00001C6.77463 8.00001 7.02898 8.10537 7.21652 8.29291C7.40405 8.48044 7.50941 8.7348 7.50941 9.00001C7.50941 9.26523 7.40405 9.51958 7.21652 9.70712C7.02898 9.89466 6.77463 10 6.50941 10C6.24419 10 5.98984 9.89466 5.8023 9.70712C5.61477 9.51958 5.50941 9.26523 5.50941 9.00001ZM10.1761 9.00001C10.1761 8.7348 10.2814 8.48044 10.469 8.29291C10.6565 8.10537 10.9109 8.00001 11.1761 8.00001C11.4413 8.00001 11.6956 8.10537 11.8832 8.29291C12.0707 8.48044 12.1761 8.7348 12.1761 9.00001C12.1761 9.26523 12.0707 9.51958 11.8832 9.70712C11.6956 9.89466 11.4413 10 11.1761 10C10.9109 10 10.6565 9.89466 10.469 9.70712C10.2814 9.51958 10.1761 9.26523 10.1761 9.00001ZM8.85274 12.402C7.92141 12.402 7.00874 12.1553 6.26541 11.5953C6.22051 11.5411 6.19744 11.4721 6.20074 11.4018C6.20403 11.3315 6.23345 11.2649 6.28322 11.2152C6.333 11.1654 6.39955 11.136 6.46987 11.1327C6.54018 11.1294 6.6092 11.1524 6.66341 11.1973C7.29341 11.6593 8.07874 11.8573 8.84274 11.8573C9.60674 11.8573 10.3961 11.674 11.0321 11.218C11.0689 11.1823 11.1145 11.1569 11.1643 11.1444C11.214 11.1318 11.2662 11.1325 11.3155 11.1464C11.3649 11.1603 11.4098 11.1869 11.4457 11.2236C11.4816 11.2602 11.5072 11.3057 11.5201 11.3553C11.5307 11.4053 11.529 11.4571 11.5151 11.5063C11.5011 11.5554 11.4754 11.6004 11.4401 11.6373C10.9847 12.1687 9.78474 12.402 8.85341 12.402" fill="black"/>
</g>
<defs>
<clipPath id="clip0_2050_1537">
<rect width="16" height="16" fill="white" transform="translate(0.875)"/>
</clipPath>
</defs>
</svg>
