<svg width="24" height="24" viewBox="0 0 24 24" fill="none" xmlns="http://www.w3.org/2000/svg">
<path d="M16 8C16 10.2091 14.2091 12 12 12C9.79086 12 8 10.2091 8 8C8 5.79086 9.79086 4 12 4C14.2091 4 16 5.79086 16 8Z" stroke="white" stroke-width="1.5" stroke-miterlimit="10" stroke-linecap="round" stroke-linejoin="round"/>
<path d="M22 9C22 10.6569 20.6569 12 19 12C17.3431 12 16 10.6569 16 9C16 7.34315 17.3431 6 19 6C20.6569 6 22 7.34315 22 9Z" stroke="white" stroke-width="1.5" stroke-miterlimit="10" stroke-linecap="round" stroke-linejoin="round"/>
<path d="M8 9C8 10.6569 6.65686 12 5 12C3.34315 12 2 10.6569 2 9C2 7.34315 3.34315 6 5 6C6.65686 6 8 7.34315 8 9Z" stroke="white" stroke-width="1.5" stroke-miterlimit="10" stroke-linecap="round" stroke-linejoin="round"/>
<path d="M17 18C17 14.6863 14.7614 12 12 12C9.23858 12 7 14.6863 7 18" stroke="white" stroke-width="1.5" stroke-miterlimit="10" stroke-linecap="round" stroke-linejoin="round"/>
<path d="M22.9999 17C22.9999 14.2386 21.2091 12 18.9999 12C17.84 12 16.7953 12.6172 16.0647 13.6032" stroke="white" stroke-width="1.5" stroke-miterlimit="10" stroke-linecap="round" stroke-linejoin="round"/>
<path d="M1 17C1 14.2386 2.79086 12 5 12C6.24035 12 7.34885 12.7057 8.08254 13.8134" stroke="white" stroke-width="1.5" stroke-miterlimit="10" stroke-linecap="round" stroke-linejoin="round"/>
</svg>
