<svg width="17" height="16" viewBox="0 0 17 16" fill="none" xmlns="http://www.w3.org/2000/svg">
<path d="M8.87467 7.59207C8.27067 6.41807 6.62667 4.2294 5.09801 3.15073C3.63334 2.1174 3.07534 2.2954 2.70934 2.46207C2.28534 2.65207 2.20801 3.3034 2.20801 3.6854C2.20801 4.06873 2.41801 6.82473 2.55467 7.2854C3.00801 8.8054 4.61734 9.31873 6.10134 9.15407C3.92801 9.47607 1.99667 10.2674 4.52801 13.0861C7.31334 15.9694 8.34534 12.4681 8.87467 10.6927C9.40401 12.4681 10.0133 15.8434 13.1707 13.0861C15.5413 10.6927 13.822 9.47607 11.6487 9.15407C13.132 9.31873 14.742 8.8054 15.1947 7.2854C15.3313 6.8254 15.5413 4.06873 15.5413 3.68607C15.5413 3.30273 15.464 2.65273 15.04 2.46073C14.674 2.2954 14.116 2.11607 12.6513 3.1494C11.1227 4.23007 9.47801 6.41873 8.87467 7.59207Z" fill="black"/>
</svg>
